<svg id="visual" viewBox="0 0 900 600" width="900" height="600" xmlns="http://www.w3.org/2000/svg" xmlns:xlink="http://www.w3.org/1999/xlink" version="1.1"><rect x="0" y="0" width="900" height="600" fill="#001220"></rect><path d="M0 390L21.5 388.7C43 387.3 86 384.7 128.8 382C171.7 379.3 214.3 376.7 257.2 372.3C300 368 343 362 385.8 370.3C428.7 378.7 471.3 401.3 514.2 415.8C557 430.3 600 436.7 642.8 427.8C685.7 419 728.3 395 771.2 394.3C814 393.7 857 416.3 878.5 427.7L900 439L900 601L878.5 601C857 601 814 601 771.2 601C728.3 601 685.7 601 642.8 601C600 601 557 601 514.2 601C471.3 601 428.7 601 385.8 601C343 601 300 601 257.2 601C214.3 601 171.7 601 128.8 601C86 601 43 601 21.5 601L0 601Z" fill="#fa7268"></path><path d="M0 417L21.5 425.2C43 433.3 86 449.7 128.8 453C171.7 456.3 214.3 446.7 257.2 446.8C300 447 343 457 385.8 451.3C428.7 445.7 471.3 424.3 514.2 414.5C557 404.7 600 406.3 642.8 407.8C685.7 409.3 728.3 410.7 771.2 420C814 429.3 857 446.7 878.5 455.3L900 464L900 601L878.5 601C857 601 814 601 771.2 601C728.3 601 685.7 601 642.8 601C600 601 557 601 514.2 601C471.3 601 428.7 601 385.8 601C343 601 300 601 257.2 601C214.3 601 171.7 601 128.8 601C86 601 43 601 21.5 601L0 601Z" fill="#ef5f67"></path><path d="M0 504L21.5 504.8C43 505.7 86 507.3 128.8 503.2C171.7 499 214.3 489 257.2 489.3C300 489.7 343 500.3 385.8 499.8C428.7 499.3 471.3 487.7 514.2 480.8C557 474 600 472 642.8 466.8C685.7 461.7 728.3 453.3 771.2 454.7C814 456 857 467 878.5 472.5L900 478L900 601L878.5 601C857 601 814 601 771.2 601C728.3 601 685.7 601 642.8 601C600 601 557 601 514.2 601C471.3 601 428.7 601 385.8 601C343 601 300 601 257.2 601C214.3 601 171.7 601 128.8 601C86 601 43 601 21.5 601L0 601Z" fill="#e34c67"></path><path d="M0 513L21.5 517.7C43 522.3 86 531.7 128.8 535.7C171.7 539.7 214.3 538.3 257.2 530.8C300 523.3 343 509.7 385.8 508.2C428.7 506.7 471.3 517.3 514.2 517C557 516.7 600 505.3 642.8 501.3C685.7 497.3 728.3 500.7 771.2 500.7C814 500.7 857 497.3 878.5 495.7L900 494L900 601L878.5 601C857 601 814 601 771.2 601C728.3 601 685.7 601 642.8 601C600 601 557 601 514.2 601C471.3 601 428.7 601 385.8 601C343 601 300 601 257.2 601C214.3 601 171.7 601 128.8 601C86 601 43 601 21.5 601L0 601Z" fill="#d53867"></path><path d="M0 536L21.5 539C43 542 86 548 128.8 549.3C171.7 550.7 214.3 547.3 257.2 550C300 552.7 343 561.3 385.8 558C428.7 554.7 471.3 539.3 514.2 539.7C557 540 600 556 642.8 557.7C685.7 559.3 728.3 546.7 771.2 546.2C814 545.7 857 557.3 878.5 563.2L900 569L900 601L878.5 601C857 601 814 601 771.2 601C728.3 601 685.7 601 642.8 601C600 601 557 601 514.2 601C471.3 601 428.7 601 385.8 601C343 601 300 601 257.2 601C214.3 601 171.7 601 128.8 601C86 601 43 601 21.5 601L0 601Z" fill="#c62368"></path></svg>