<svg id="visual" viewBox="0 0 900 600" width="900" height="600" xmlns="http://www.w3.org/2000/svg" xmlns:xlink="http://www.w3.org/1999/xlink" version="1.1"><rect x="0" y="0" width="900" height="600" fill="#00000000"></rect><path d="M0 208L21.5 209.3C43 210.7 86 213.3 128.8 216C171.7 218.7 214.3 221.3 257.2 225.7C300 230 343 236 385.8 227.7C428.7 219.3 471.3 196.7 514.2 182.2C557 167.7 600 161.3 642.8 170.2C685.7 179 728.3 203 771.2 203.7C814 204.3 857 181.7 878.5 170.3L900 159L900 0L878.5 0C857 0 814 0 771.2 0C728.3 0 685.7 0 642.8 0C600 0 557 0 514.2 0C471.3 0 428.7 0 385.8 0C343 0 300 0 257.2 0C214.3 0 171.7 0 128.8 0C86 0 43 0 21.5 0L0 0Z" fill="#fa7268"></path><path d="M0 181L21.5 172.8C43 164.7 86 148.3 128.8 145C171.7 141.7 214.3 151.3 257.2 151.2C300 151 343 141 385.8 146.7C428.7 152.3 471.3 173.7 514.2 183.5C557 193.3 600 191.7 642.8 190.2C685.7 188.7 728.3 187.3 771.2 178C814 168.7 857 151.3 878.5 142.7L900 134L900 0L878.5 0C857 0 814 0 771.2 0C728.3 0 685.7 0 642.8 0C600 0 557 0 514.2 0C471.3 0 428.7 0 385.8 0C343 0 300 0 257.2 0C214.3 0 171.7 0 128.8 0C86 0 43 0 21.5 0L0 0Z" fill="#ef5f67"></path><path d="M0 94L21.5 93.2C43 92.3 86 90.7 128.8 94.8C171.7 99 214.3 109 257.2 108.7C300 108.3 343 97.7 385.8 98.2C428.7 98.7 471.3 110.3 514.2 117.2C557 124 600 126 642.8 131.2C685.7 136.3 728.3 144.7 771.2 143.3C814 142 857 131 878.5 125.5L900 120L900 0L878.5 0C857 0 814 0 771.2 0C728.3 0 685.7 0 642.8 0C600 0 557 0 514.2 0C471.3 0 428.7 0 385.8 0C343 0 300 0 257.2 0C214.3 0 171.7 0 128.8 0C86 0 43 0 21.5 0L0 0Z" fill="#e34c67"></path><path d="M0 85L21.5 80.3C43 75.7 86 66.3 128.8 62.3C171.7 58.3 214.3 59.7 257.2 67.2C300 74.7 343 88.3 385.8 89.8C428.7 91.3 471.3 80.7 514.2 81C557 81.3 600 92.7 642.8 96.7C685.7 100.7 728.3 97.3 771.2 97.3C814 97.3 857 100.7 878.5 102.3L900 104L900 0L878.5 0C857 0 814 0 771.2 0C728.3 0 685.7 0 642.8 0C600 0 557 0 514.2 0C471.3 0 428.7 0 385.8 0C343 0 300 0 257.2 0C214.3 0 171.7 0 128.8 0C86 0 43 0 21.5 0L0 0Z" fill="#d53867"></path><path d="M0 62L21.5 59C43 56 86 50 128.8 48.7C171.7 47.3 214.3 50.7 257.2 48C300 45.3 343 36.7 385.8 40C428.7 43.3 471.3 58.7 514.2 58.3C557 58 600 42 642.8 40.3C685.7 38.7 728.3 51.3 771.2 51.8C814 52.3 857 40.7 878.5 34.8L900 29L900 0L878.5 0C857 0 814 0 771.2 0C728.3 0 685.7 0 642.8 0C600 0 557 0 514.2 0C471.3 0 428.7 0 385.8 0C343 0 300 0 257.2 0C214.3 0 171.7 0 128.8 0C86 0 43 0 21.5 0L0 0Z" fill="#c62368"></path></svg>